<svg width="24" height="24" xmlns="http://www.w3.org/2000/svg">

 <g>
  <title>Layer 1</title>
  <path stroke-width="0" stroke="#000000" fill="#ffffff" d="m17.49,0.97c0.08,0.08 0.15,0.13 0.2,0.19c0.289,0.317 0.513,0.687 0.66,1.09c0.192,0.525 0.234,1.093 0.12,1.64c-0.035,0.19 -0.085,0.378 -0.15,0.56c-0.094,0.215 -0.204,0.422 -0.33,0.62l-0.84,1.34l-0.69,1.09l-1,1.56l-1,1.64c-0.25,0.41 -0.49,0.82 -0.75,1.23l-1.24,2c-0.24,0.39 -0.48,0.8 -0.73,1.19c-0.25,0.39 -0.59,0.91 -0.89,1.37l-0.33,0.5c-0.029,0.043 -0.053,0.09 -0.07,0.14c0.566,0.178 1.157,0.259 1.75,0.24c1.016,-0.039 2.001,-0.362 2.844,-0.931c0.842,-0.568 1.51,-1.361 1.926,-2.289c0.352,-0.801 0.499,-1.678 0.43,-2.55c-0.07,-0.881 -0.351,-1.731 -0.82,-2.48l1.57,-2.5l0.49,0.62c0.47,0.655 0.841,1.376 1.1,2.14c0.19,0.536 0.31,1.094 0.36,1.66c0.025,0.496 0.025,0.994 0,1.49c-0.018,0.599 -0.122,1.191 -0.31,1.76c-0.141,0.443 -0.308,0.877 -0.5,1.3c-0.261,0.548 -0.598,1.056 -1,1.51c-0.217,0.274 -0.451,0.534 -0.7,0.78c-0.538,0.521 -1.147,0.962 -1.81,1.31c-0.763,0.408 -1.587,0.692 -2.44,0.84c-0.36,0.063 -0.725,0.096 -1.09,0.1c-0.427,0.01 -0.855,-0.006 -1.28,-0.05c-0.481,-0.06 -0.969,-0.06 -1.45,0c-0.568,0.076 -1.129,0.193 -1.68,0.35c-0.518,0.167 -1.025,0.364 -1.52,0.59c-0.34,0.15 -0.67,0.32 -1,0.5c-0.166,0.094 -0.326,0.197 -0.48,0.31c-0.13,0.1 -0.25,0.11 -0.33,0c-0.033,-0.039 -0.05,-0.089 -0.05,-0.14c0,-0.051 0.017,-0.101 0.05,-0.14l0.9,-1.43l1,-1.53c0.32,-0.49 0.63,-1 0.94,-1.47l0.67,-1.15c0.27,-0.43 0.55,-0.86 0.82,-1.3c0.38,-0.6 0.76,-1.21 1.13,-1.82l1.66,-2.63c0.29,-0.46 0.6,-0.91 0.89,-1.38l0.89,-1.42c0.2,-0.32 0.42,-0.63 0.62,-0.94l0.63,-1l0.85,-1.32l0.51,-0.83l0.51,-0.81c0.19,-0.3 0.38,-0.59 0.56,-0.89l0.4,-0.66zm-9.98,14.05l-1.54,2.46c-0.795,-0.855 -1.384,-1.882 -1.72,-3c-0.341,-1.007 -0.476,-2.072 -0.397,-3.132c0.079,-1.06 0.371,-2.093 0.857,-3.038c0.852,-1.721 2.289,-3.085 4.052,-3.847c1.763,-0.761 3.741,-0.872 5.578,-0.313l-1.56,2.49c-1.033,-0.156 -2.09,-0.002 -3.036,0.441c-0.947,0.443 -1.742,1.156 -2.284,2.049c-0.576,0.876 -0.88,1.904 -0.871,2.953c0.009,1.048 0.33,2.071 0.921,2.937z" id="path"/>
 </g>
</svg>