<?xml version="1.0" encoding="UTF-8"?>
<!-- Generator: Adobe Illustrator 24.3.0, SVG Export Plug-In . SVG Version: 6.00 Build 0)  -->
<svg version="1.1" id="Layer_1" xmlns="http://www.w3.org/2000/svg" xmlns:xlink="http://www.w3.org/1999/xlink" x="0px" y="0px" viewBox="0 0 512 300" style="enable-background:new 0 0 512 300;" xml:space="preserve">
<style type="text/css">
	.st0{fill:#ffffff;}
</style>
<g>
	<g>
		<path class="st0" d="M142.1,188.28v11.27c0,13.57,4.07,21.13,14.76,21.13c10.96,0,13.8-10.39,13.8-22.23    c0-19.6-4.23-25.68-23.78-41.11c-19.62-15.49-30.11-25.4-30.11-52.39c0-24.04,7.27-48.29,40.19-48.26    c33.66,0.03,38.86,24.03,38.86,43.81v9.74h-27.88v-8.99c0-12.7-2.14-20.38-11.48-20.38c-9.14,0-11.55,7.95-11.55,20.03    c0,12.88,2.45,19.19,18.48,30.92c27.29,20.18,35.65,31.9,35.65,62.41c0,25.87-9.06,50.38-43.09,50.38    c-33.73,0-41.96-21.49-41.96-45.51v-10.82H142.1z"/>
		<path class="st0" d="M216.88,59.59h40.56c28.96,0,43.73,14.31,43.73,46.55v10.75c0,30.1-10.75,50.09-45.3,50.09h-10.86v74.97    h-28.13V59.59z M245.01,144h7.71c17.53,0,20.54-10.24,20.54-28.04V107c0-13.26-2.41-24.19-18.04-24.19h-10.21V144z"/>
		<path class="st0" d="M337.56,188.28v11.27c0,13.57,4.07,21.13,14.76,21.13c10.96,0,13.8-10.39,13.8-22.23    c0-19.6-4.23-25.68-23.78-41.11c-19.62-15.49-30.11-25.4-30.11-52.39c0-24.04,7.27-48.29,40.19-48.26    c33.66,0.03,38.86,24.03,38.86,43.81v9.74h-27.88v-8.99c0-12.7-2.14-20.38-11.48-20.38c-9.14,0-11.55,7.95-11.55,20.03    c0,12.88,2.45,19.19,18.47,30.92c27.29,20.18,35.66,31.9,35.66,62.41c0,25.87-9.07,50.38-43.09,50.38    c-33.73,0-41.96-21.49-41.96-45.51v-10.82H337.56z"/>
	</g>
</g>
</svg>
